name rise30.3154peak39.0474fall46.5389.mot
datacolumns 19
datarows 32
range 18.41493500000000 18.46660100000000
endheader
time	ground_force1_vx	ground_force1_vy	ground_force1_vz	ground_force1_px	ground_force1_py	ground_force1_pz	ground_force2_vx	ground_force2_vy	ground_force2_vz	ground_force2_px	ground_force2_py	ground_force2_pz	ground_torque1_x	ground_torque1_y	ground_torque1_z	ground_torque2_x	ground_torque2_y	ground_torque2_z	
18.41493500000000	-8.02771200000000	47.47508500000000	-9.58521400000000	0.32254400000000	0.00000000000000	0.10555400000000	-48.46518300000000	776.54813999999999	-56.50155200000000	0.16600600000000	0.00000000000000	-0.08233500000000	0.00000000000000	-6.50573200000000	0.00000000000000	0.00000000000000	-24.82918300000000	0.00000000000000	
18.41659600000000	-8.75940300000000	56.11710500000000	-10.80556100000000	0.32878100000000	0.00000000000000	0.10643500000000	-49.07882400000000	774.46028300000000	-56.51756200000000	0.16478200000000	0.00000000000000	-0.08235300000000	0.00000000000000	-7.44925400000000	0.00000000000000	0.00000000000000	-24.78067100000000	0.00000000000000	
18.41827000000000	-9.32673500000000	64.98283400000000	-11.92256700000000	0.33435400000000	0.00000000000000	0.10720700000000	-49.70526000000000	772.25162999999998	-56.51055600000000	0.16355300000000	0.00000000000000	-0.08236900000000	0.00000000000000	-8.34453800000000	0.00000000000000	0.00000000000000	-24.72938000000000	0.00000000000000	
18.41992900000000	-9.70758800000000	73.96369700000000	-12.91022300000000	0.33939000000000	0.00000000000000	0.10789100000000	-50.34380900000000	769.91942900000004	-56.47972900000000	0.16232100000000	0.00000000000000	-0.08238300000000	0.00000000000000	-9.17209200000000	0.00000000000000	0.00000000000000	-24.67519900000000	0.00000000000000	
18.42160300000000	-9.88908600000000	82.97304699999999	-13.75078400000000	0.34398900000000	0.00000000000000	0.10850400000000	-50.99370900000000	767.46088999999995	-56.42429600000000	0.16108700000000	0.00000000000000	-0.08239300000000	0.00000000000000	-9.91771900000000	0.00000000000000	0.00000000000000	-24.61801500000000	0.00000000000000	
18.42326300000000	-9.86742700000000	91.94924000000000	-14.43493300000000	0.34822500000000	0.00000000000000	0.10905700000000	-51.65411800000000	764.87319100000002	-56.34349800000000	0.15985200000000	0.00000000000000	-0.08240200000000	0.00000000000000	-10.57280300000000	0.00000000000000	0.00000000000000	-24.55771200000000	0.00000000000000	
18.42493100000000	-9.64699800000000	100.85612300000000	-14.96123300000000	0.35215800000000	0.00000000000000	0.10956000000000	-52.32411900000000	762.15348600000004	-56.23660200000000	0.15861900000000	0.00000000000000	-0.08240700000000	0.00000000000000	-11.13408900000000	0.00000000000000	0.00000000000000	-24.49417200000000	0.00000000000000	
18.42659700000000	-9.23897800000000	109.68134400000000	-15.33502600000000	0.35583400000000	0.00000000000000	0.11002100000000	-53.00271400000000	759.29890899999998	-56.10290600000000	0.15738900000000	0.00000000000000	-0.08240800000000	0.00000000000000	-11.60306700000000	0.00000000000000	0.00000000000000	-24.42727600000000	0.00000000000000	
18.42826500000000	-8.65962100000000	118.43299000000000	-15.56697100000000	0.35929200000000	0.00000000000000	0.11044600000000	-53.68882800000000	756.30658400000004	-55.94174000000000	0.15616300000000	0.00000000000000	-0.08240700000000	0.00000000000000	-11.98507200000000	0.00000000000000	0.00000000000000	-24.35690300000000	0.00000000000000	
18.42993300000000	-7.92843000000000	127.13512799999999	-15.67140100000000	0.36256300000000	0.00000000000000	0.11084000000000	-54.38131300000000	753.17363100000000	-55.75247400000000	0.15494300000000	0.00000000000000	-0.08240200000000	0.00000000000000	-12.28822000000000	0.00000000000000	0.00000000000000	-24.28293200000000	0.00000000000000	
18.43159800000000	-7.06638200000000	135.82281499999999	-15.66466900000000	0.36567100000000	0.00000000000000	0.11120800000000	-55.07894800000000	749.89718000000005	-55.53451500000000	0.15373100000000	0.00000000000000	-0.08239300000000	0.00000000000000	-12.52230700000000	0.00000000000000	0.00000000000000	-24.20523700000000	0.00000000000000	
18.43326600000000	-6.09433600000000	144.53706800000000	-15.56362200000000	0.36863800000000	0.00000000000000	0.11155100000000	-55.78043900000000	746.47437000000002	-55.28731400000000	0.15252900000000	0.00000000000000	-0.08238000000000	0.00000000000000	-12.69776100000000	0.00000000000000	0.00000000000000	-24.12369500000000	0.00000000000000	
18.43493400000000	-5.03173400000000	153.32020800000001	-15.38429500000000	0.37148200000000	0.00000000000000	0.11187400000000	-56.48442300000000	742.90237200000001	-55.01037100000000	0.15133900000000	0.00000000000000	-0.08236200000000	0.00000000000000	-12.82471700000000	0.00000000000000	0.00000000000000	-24.03818000000000	0.00000000000000	
18.43659800000000	-3.89563000000000	162.21188599999999	-15.14089800000000	0.37421700000000	0.00000000000000	0.11217900000000	-57.18947100000000	739.17838600000005	-54.70323300000000	0.15016300000000	0.00000000000000	-0.08234000000000	0.00000000000000	-12.91228200000000	0.00000000000000	0.00000000000000	-23.94856500000000	0.00000000000000	
18.43826400000000	-2.70007800000000	171.24596199999999	-14.84512300000000	0.37685600000000	0.00000000000000	0.11246800000000	-57.89409000000000	735.29966300000001	-54.36550100000000	0.14900200000000	0.00000000000000	-0.08231400000000	0.00000000000000	-12.96800000000000	0.00000000000000	0.00000000000000	-23.85472200000000	0.00000000000000	
18.43993200000000	-1.45585400000000	180.44834399999999	-14.50576100000000	0.37940900000000	0.00000000000000	0.11274200000000	-58.59672700000000	731.26351199999999	-53.99683300000000	0.14785900000000	0.00000000000000	-0.08228200000000	0.00000000000000	-12.99753300000000	0.00000000000000	0.00000000000000	-23.75652200000000	0.00000000000000	
18.44159900000000	-0.17047700000000	189.83577000000000	-14.12861300000000	0.38188500000000	0.00000000000000	0.11300300000000	-59.29577000000000	727.06731200000002	-53.59694500000000	0.14673500000000	0.00000000000000	-0.08224500000000	0.00000000000000	-13.00454400000000	0.00000000000000	0.00000000000000	-23.65383700000000	0.00000000000000	
18.44326500000000	1.15152600000000	199.41545199999999	-13.71663900000000	0.38429300000000	0.00000000000000	0.11325300000000	-59.98955500000000	722.70852600000001	-53.16561400000000	0.14563300000000	0.00000000000000	-0.08220300000000	0.00000000000000	-12.99074600000000	0.00000000000000	0.00000000000000	-23.54653700000000	0.00000000000000	
18.44493400000000	2.50818000000000	209.18546000000001	-13.27030000000000	0.38663800000000	0.00000000000000	0.11349100000000	-60.67636700000000	718.18471799999998	-52.70268300000000	0.14455500000000	0.00000000000000	-0.08215500000000	0.00000000000000	-12.95609800000000	0.00000000000000	0.00000000000000	-23.43448900000000	0.00000000000000	
18.44659700000000	3.89950400000000	219.13567399999999	-12.78802500000000	0.38892700000000	0.00000000000000	0.11372000000000	-61.35444400000000	713.49356299999999	-52.20806200000000	0.14350200000000	0.00000000000000	-0.08210100000000	0.00000000000000	-12.89909500000000	0.00000000000000	0.00000000000000	-23.31756300000000	0.00000000000000	
18.44827000000000	5.32690600000000	229.24913500000000	-12.26674900000000	0.39116400000000	0.00000000000000	0.11394100000000	-62.02198400000000	708.63286600000004	-51.68172700000000	0.14247700000000	0.00000000000000	-0.08204100000000	0.00000000000000	-12.81712300000000	0.00000000000000	0.00000000000000	-23.19562600000000	0.00000000000000	
18.44993400000000	6.79258200000000	239.50362400000000	-11.70247100000000	0.39335400000000	0.00000000000000	0.11415200000000	-62.67714900000000	703.60057900000004	-51.12372900000000	0.14148200000000	0.00000000000000	-0.08197500000000	0.00000000000000	-12.70682900000000	0.00000000000000	0.00000000000000	-23.06854400000000	0.00000000000000	
18.45159600000000	8.29896500000000	249.87329800000001	-11.09077900000000	0.39550000000000	0.00000000000000	0.11435700000000	-63.31806400000000	698.39481400000000	-50.53418800000000	0.14051900000000	0.00000000000000	-0.08190300000000	0.00000000000000	-12.56449200000000	0.00000000000000	0.00000000000000	-22.93618100000000	0.00000000000000	
18.45327000000000	9.84825000000000	260.33027199999998	-10.42732300000000	0.39760600000000	0.00000000000000	0.11455400000000	-63.94283100000000	693.01386200000002	-49.91329900000000	0.13959000000000	0.00000000000000	-0.08182300000000	0.00000000000000	-12.38635300000000	0.00000000000000	0.00000000000000	-22.79840400000000	0.00000000000000	
18.45493600000000	11.44202600000000	270.84603499999997	-9.70819500000000	0.39967400000000	0.00000000000000	0.11474500000000	-64.54952800000000	687.45621300000005	-49.26133100000000	0.13869700000000	0.00000000000000	-0.08173700000000	0.00000000000000	-12.16889400000000	0.00000000000000	0.00000000000000	-22.65507300000000	0.00000000000000	
18.45659700000000	13.08101000000000	281.39262700000000	-8.93022200000000	0.40170600000000	0.00000000000000	0.11493000000000	-65.13621400000000	681.72056499999997	-48.57863200000000	0.13784300000000	0.00000000000000	-0.08164300000000	0.00000000000000	-11.90906000000000	0.00000000000000	0.00000000000000	-22.50605200000000	0.00000000000000	
18.45827000000000	14.76489400000000	291.94354800000002	-8.09115600000000	0.40370500000000	0.00000000000000	0.11510800000000	-65.70093799999999	675.80584899999997	-47.86562100000000	0.13702800000000	0.00000000000000	-0.08154200000000	0.00000000000000	-11.60440500000000	0.00000000000000	0.00000000000000	-22.35120000000000	0.00000000000000	
18.45993600000000	16.49229200000000	302.47438599999998	-7.18976900000000	0.40567100000000	0.00000000000000	0.11528200000000	-66.24174100000000	669.71123699999998	-47.12279700000000	0.13625600000000	0.00000000000000	-0.08143300000000	0.00000000000000	-11.25318400000000	0.00000000000000	0.00000000000000	-22.19037800000000	0.00000000000000	
18.46160100000000	18.26076500000000	312.96317299999998	-6.22587200000000	0.40760600000000	0.00000000000000	0.11545000000000	-66.75666200000001	663.43615899999998	-46.35073500000000	0.13552800000000	0.00000000000000	-0.08131700000000	0.00000000000000	-10.85437900000000	0.00000000000000	0.00000000000000	-22.02344300000000	0.00000000000000	
18.46326600000000	20.06692100000000	323.39050200000003	-5.20025900000000	0.40951200000000	0.00000000000000	0.11561400000000	-67.24374600000000	656.98031100000003	-45.55008800000000	0.13484600000000	0.00000000000000	-0.08119200000000	0.00000000000000	-10.40767800000000	0.00000000000000	0.00000000000000	-21.85025300000000	0.00000000000000	
18.46493500000000	21.90655500000000	333.73945600000002	-4.11460800000000	0.41138800000000	0.00000000000000	0.11577300000000	-67.70104400000000	650.34367099999997	-44.72158400000000	0.13421300000000	0.00000000000000	-0.08106000000000	0.00000000000000	-9.91341700000000	0.00000000000000	0.00000000000000	-21.67066500000000	0.00000000000000	
18.46660100000000	23.77482100000000	343.99538000000001	-2.97134200000000	0.41323500000000	0.00000000000000	0.11592700000000	-68.12662600000000	643.52650000000006	-43.86602800000000	0.13362900000000	0.00000000000000	-0.08091800000000	0.00000000000000	-9.37249600000000	0.00000000000000	0.00000000000000	-21.48453500000000	0.00000000000000	
